<svg width="24" height="24" viewBox="0 0 24 24" fill="none" xmlns="http://www.w3.org/2000/svg">
<path d="M5 10.25V19.3C5 20.05 5.6 20.65 6.35 20.65H17.65C18.4 20.65 19 20.05 19 19.3V10.25" stroke="#A2A2A2" stroke-width="1.7" stroke-linecap="round" stroke-linejoin="round"/>
<path d="M8.35 20.5V15.8C8.35 15.25 8.8 14.8 9.35 14.8H14.65C15.2 14.8 15.65 15.25 15.65 15.8V20.5" stroke="#A2A2A2" stroke-width="1.7" stroke-linecap="round" stroke-linejoin="round"/>
<path d="M4.25 5.1H19.75L20.65 8.6C20.9 9.58 20.16 10.55 19.15 10.55C18.42 10.55 17.79 10.05 17.62 9.35C17.45 10.05 16.82 10.55 16.09 10.55C15.36 10.55 14.73 10.05 14.56 9.35C14.39 10.05 13.76 10.55 13.03 10.55H10.97C10.24 10.55 9.61 10.05 9.44 9.35C9.27 10.05 8.64 10.55 7.91 10.55C7.18 10.55 6.55 10.05 6.38 9.35C6.21 10.05 5.58 10.55 4.85 10.55C3.84 10.55 3.1 9.58 3.35 8.6L4.25 5.1Z" stroke="#A2A2A2" stroke-width="1.7" stroke-linecap="round" stroke-linejoin="round"/>
<path d="M6.2 3.35H17.8" stroke="#A2A2A2" stroke-width="1.7" stroke-linecap="round"/>
</svg>
