<svg width="24" height="24" viewBox="0 0 24 24" fill="none" xmlns="http://www.w3.org/2000/svg">
<path d="M4 14.25L5.9 9.65C6.22 8.87 6.98 8.36 7.83 8.36H14.9C15.75 8.36 16.51 8.87 16.83 9.65L18.72 14.25" stroke="#A2A2A2" stroke-width="1.7" stroke-linecap="round" stroke-linejoin="round"/>
<path d="M5.45 13.75H17.3C18.2 13.75 18.93 14.48 18.93 15.38V18.15C18.93 18.7 18.48 19.15 17.93 19.15H16.75C16.2 19.15 15.75 18.7 15.75 18.15V17.95H7V18.15C7 18.7 6.55 19.15 6 19.15H4.82C4.27 19.15 3.82 18.7 3.82 18.15V15.38C3.82 14.48 4.55 13.75 5.45 13.75Z" stroke="#A2A2A2" stroke-width="1.7" stroke-linecap="round" stroke-linejoin="round"/>
<path d="M6.85 16.35H7.65" stroke="#A2A2A2" stroke-width="1.7" stroke-linecap="round"/>
<path d="M15.05 16.35H15.85" stroke="#A2A2A2" stroke-width="1.7" stroke-linecap="round"/>
<path d="M18.8 4.5V8.9" stroke="#A2A2A2" stroke-width="1.7" stroke-linecap="round"/>
<path d="M16.6 6.7H21" stroke="#A2A2A2" stroke-width="1.7" stroke-linecap="round"/>
</svg>
